<svg xmlns="http://www.w3.org/2000/svg" xmlns:xlink="http://www.w3.org/1999/xlink" viewBox="0,0,256,256" width="204px" height="204px" fill-rule="nonzero"><g transform=""><g fill-opacity="0" fill="#fffefe" fill-rule="nonzero" stroke="none" stroke-width="1" stroke-linecap="butt" stroke-linejoin="miter" stroke-miterlimit="10" stroke-dasharray="" stroke-dashoffset="0" font-family="none" font-weight="none" font-size="none" text-anchor="none" style="mix-blend-mode: normal"><path d="M0,256v-256h256v256z" id="bgRectangle"></path></g><g fill="none" fill-rule="nonzero" stroke="none" stroke-width="1" stroke-linecap="butt" stroke-linejoin="miter" stroke-miterlimit="10" stroke-dasharray="" stroke-dashoffset="0" font-family="none" font-weight="none" font-size="none" text-anchor="none" style="mix-blend-mode: normal"><g transform="scale(5.33333,5.33333)"><path d="M41,5h-34l3,34l14,4l14,-4l3,-34z" fill="#e65100"></path><path d="M24,8v31.9l11.2,-3.2l2.5,-28.7z" fill="#ff6d00"></path><path d="M24,25v-4h8.6l-0.7,11.5l-7.9,2.6v-4.2l4.1,-1.4l0.3,-4.5zM32.9,17l0.3,-4h-9.2v4z" fill="#ffffff"></path><path d="M24,30.9v4.2l-7.9,-2.6l-0.4,-5.5h4l0.2,2.5zM19.1,17h4.9v-4h-9.1l0.7,12h8.4v-4h-4.6z" fill="#eeeeee"></path></g></g></g></svg>