<svg width="70" height="70" viewBox="0 0 70 70" fill="none" xmlns="http://www.w3.org/2000/svg">
<g filter="url(#filter0_d_703_79)">
<path fill-rule="evenodd" clip-rule="evenodd" d="M60 15.572C60 14.9785 60.0002 14.3848 59.9966 13.7912C59.9936 13.2912 59.9879 12.7912 59.9743 12.2914C59.9449 11.202 59.8806 10.1033 59.6869 9.02606C59.4904 7.93328 59.1695 6.91624 58.6639 5.92334C58.1668 4.94743 57.5175 4.05441 56.7427 3.28021C55.9682 2.506 55.0749 1.85709 54.0986 1.36031C53.1047 0.854548 52.0866 0.533797 50.9926 0.337377C49.9152 0.143932 48.8162 0.0797934 47.7268 0.0503639C47.2267 0.0368324 46.7265 0.0311285 46.2262 0.0280339C45.6323 0.0243931 45.0383 0.0246965 44.4444 0.0246965L37.5483 0H32.3906L25.6166 0.0246965C25.0215 0.0246965 24.4264 0.0243931 23.8313 0.0280339C23.33 0.0311285 22.8289 0.0368324 22.3278 0.0503639C21.2358 0.0797934 20.1343 0.143992 19.0544 0.337681C17.959 0.534039 16.9393 0.854669 15.9441 1.36007C14.9657 1.85691 14.0705 2.50588 13.2943 3.28021C12.5182 4.05435 11.8677 4.94719 11.3697 5.92292C10.8627 6.9163 10.5412 7.93395 10.3442 9.02733C10.1503 10.1042 10.086 11.2025 10.0565 12.2914C10.043 12.7913 10.0372 13.2912 10.0342 13.7912C10.0305 14.3849 10 15.1223 10 15.716L10.0002 22.3962L10 27.6091L10.0308 34.4312C10.0308 35.0257 10.0306 35.6201 10.0342 36.2145C10.0372 36.7152 10.043 37.2158 10.0566 37.7164C10.086 38.8071 10.1504 39.9074 10.3445 40.9861C10.5414 42.0804 10.8629 43.0989 11.3695 44.093C11.8675 45.0703 12.5182 45.9645 13.2943 46.7398C14.0705 47.5151 14.9654 48.1649 15.9436 48.6624C16.9395 49.1688 17.9596 49.49 19.0557 49.6866C20.1351 49.8804 21.2363 49.9447 22.3278 49.9741C22.8289 49.9876 23.3301 49.9934 23.8314 49.9964C24.4265 50.0001 25.0215 49.9998 25.6166 49.9998L32.4518 50H37.6224L44.4444 49.9998C45.0383 49.9998 45.6323 50.0001 46.2262 49.9964C46.7265 49.9934 47.2267 49.9876 47.7268 49.9741C48.8166 49.9446 49.916 49.8803 50.9939 49.6864C52.0872 49.4897 53.1048 49.1687 54.0982 48.6626C55.0747 48.1651 55.9681 47.5152 56.7427 46.7398C57.5174 45.9646 58.1666 45.0706 58.6637 44.0935C59.1697 43.0988 59.4905 42.0798 59.6871 40.9849C59.8807 39.9066 59.9449 38.8067 59.9743 37.7164C59.9879 37.2158 59.9936 36.7152 59.9966 36.2145C60.0003 35.6201 60 35.0257 60 34.4312C60 34.4312 59.9996 27.7296 59.9996 27.6091V22.3907C59.9996 22.3017 60 15.572 60 15.572" fill="url(#paint0_linear_703_79)"/>
</g>
<mask id="mask0_703_79" style="mask-type:alpha" maskUnits="userSpaceOnUse" x="10" y="0" width="50" height="50">
<path fill-rule="evenodd" clip-rule="evenodd" d="M60 15.572C60 14.9785 60.0002 14.3848 59.9966 13.7912C59.9936 13.2912 59.9879 12.7912 59.9743 12.2914C59.9449 11.202 59.8806 10.1033 59.6869 9.02606C59.4904 7.93328 59.1695 6.91624 58.6639 5.92334C58.1668 4.94743 57.5175 4.05441 56.7427 3.28021C55.9682 2.506 55.0749 1.85709 54.0986 1.36031C53.1047 0.854548 52.0866 0.533797 50.9926 0.337377C49.9152 0.143932 48.8162 0.0797934 47.7268 0.0503639C47.2267 0.0368324 46.7265 0.0311285 46.2262 0.0280339C45.6323 0.0243931 45.0383 0.0246965 44.4444 0.0246965L37.5483 0H32.3906L25.6166 0.0246965C25.0215 0.0246965 24.4264 0.0243931 23.8313 0.0280339C23.33 0.0311285 22.8289 0.0368324 22.3278 0.0503639C21.2358 0.0797934 20.1343 0.143992 19.0544 0.337681C17.959 0.534039 16.9393 0.854669 15.9441 1.36007C14.9657 1.85691 14.0705 2.50588 13.2943 3.28021C12.5182 4.05435 11.8677 4.94719 11.3697 5.92292C10.8627 6.9163 10.5412 7.93395 10.3442 9.02733C10.1503 10.1042 10.086 11.2025 10.0565 12.2914C10.043 12.7913 10.0372 13.2912 10.0342 13.7912C10.0305 14.3849 10 15.1223 10 15.716L10.0002 22.3962L10 27.6091L10.0308 34.4312C10.0308 35.0257 10.0306 35.6201 10.0342 36.2145C10.0372 36.7152 10.043 37.2158 10.0566 37.7164C10.086 38.8071 10.1504 39.9074 10.3445 40.9861C10.5414 42.0804 10.8629 43.0989 11.3695 44.093C11.8675 45.0703 12.5182 45.9645 13.2943 46.7398C14.0705 47.5151 14.9654 48.1649 15.9436 48.6624C16.9395 49.1688 17.9596 49.49 19.0557 49.6866C20.1351 49.8804 21.2363 49.9447 22.3278 49.9741C22.8289 49.9876 23.3301 49.9934 23.8314 49.9964C24.4265 50.0001 25.0215 49.9998 25.6166 49.9998L32.4518 50H37.6224L44.4444 49.9998C45.0383 49.9998 45.6323 50.0001 46.2262 49.9964C46.7265 49.9934 47.2267 49.9876 47.7268 49.9741C48.8166 49.9446 49.916 49.8803 50.9939 49.6864C52.0872 49.4897 53.1048 49.1687 54.0982 48.6626C55.0747 48.1651 55.9681 47.5152 56.7427 46.7398C57.5174 45.9646 58.1666 45.0706 58.6637 44.0935C59.1697 43.0988 59.4905 42.0798 59.6871 40.9849C59.8807 39.9066 59.9449 38.8067 59.9743 37.7164C59.9879 37.2158 59.9936 36.7152 59.9966 36.2145C60.0003 35.6201 60 35.0257 60 34.4312C60 34.4312 59.9996 27.7296 59.9996 27.6091V22.3907C59.9996 22.3017 60 15.572 60 15.572" fill="white"/>
</mask>
<g mask="url(#mask0_703_79)">
<rect x="6.48071" y="-3.76221" width="55.4612" height="55.4612" fill="#0A66C2"/>
<g filter="url(#filter1_b_703_79)">
<rect x="10" width="50" height="50" rx="25" fill="black" fill-opacity="0.01"/>
</g>
<rect x="6.48071" y="-3.76221" width="55.4612" height="55.4612" fill="#D9D9D9" fill-opacity="0.01"/>
<g filter="url(#filter2_ii_703_79)">
<path fill-rule="evenodd" clip-rule="evenodd" d="M60 15.572C60 14.9785 60.0002 14.3848 59.9966 13.7912C59.9936 13.2912 59.9879 12.7912 59.9743 12.2914C59.9449 11.202 59.8806 10.1033 59.6869 9.02606C59.4904 7.93328 59.1695 6.91624 58.6639 5.92334C58.1668 4.94743 57.5175 4.05441 56.7427 3.28021C55.9682 2.506 55.0749 1.85709 54.0986 1.36031C53.1047 0.854548 52.0866 0.533797 50.9926 0.337377C49.9152 0.143932 48.8162 0.0797934 47.7268 0.0503639C47.2267 0.0368324 46.7265 0.0311285 46.2262 0.0280339C45.6323 0.0243931 45.0383 0.0246965 44.4444 0.0246965L37.5483 0H32.3906L25.6166 0.0246965C25.0215 0.0246965 24.4264 0.0243931 23.8313 0.0280339C23.33 0.0311285 22.8289 0.0368324 22.3278 0.0503639C21.2358 0.0797934 20.1343 0.143992 19.0544 0.337681C17.959 0.534039 16.9393 0.854669 15.9441 1.36007C14.9657 1.85691 14.0705 2.50588 13.2943 3.28021C12.5182 4.05435 11.8677 4.94719 11.3697 5.92292C10.8627 6.9163 10.5412 7.93395 10.3442 9.02733C10.1503 10.1042 10.086 11.2025 10.0565 12.2914C10.043 12.7913 10.0372 13.2912 10.0342 13.7912C10.0305 14.3849 10 15.1223 10 15.716L10.0002 22.3962L10 27.6091L10.0308 34.4312C10.0308 35.0257 10.0306 35.6201 10.0342 36.2145C10.0372 36.7152 10.043 37.2158 10.0566 37.7164C10.086 38.8071 10.1504 39.9074 10.3445 40.9861C10.5414 42.0804 10.8629 43.0989 11.3695 44.093C11.8675 45.0703 12.5182 45.9645 13.2943 46.7398C14.0705 47.5151 14.9654 48.1649 15.9436 48.6624C16.9395 49.1688 17.9596 49.49 19.0557 49.6866C20.1351 49.8804 21.2363 49.9447 22.3278 49.9741C22.8289 49.9876 23.3301 49.9934 23.8314 49.9964C24.4265 50.0001 25.0215 49.9998 25.6166 49.9998L32.4518 50H37.6224L44.4444 49.9998C45.0383 49.9998 45.6323 50.0001 46.2262 49.9964C46.7265 49.9934 47.2267 49.9876 47.7268 49.9741C48.8166 49.9446 49.916 49.8803 50.9939 49.6864C52.0872 49.4897 53.1048 49.1687 54.0982 48.6626C55.0747 48.1651 55.9681 47.5152 56.7427 46.7398C57.5174 45.9646 58.1666 45.0706 58.6637 44.0935C59.1697 43.0988 59.4905 42.0798 59.6871 40.9849C59.8807 39.9066 59.9449 38.8067 59.9743 37.7164C59.9879 37.2158 59.9936 36.7152 59.9966 36.2145C60.0003 35.6201 60 35.0257 60 34.4312C60 34.4312 59.9996 27.7296 59.9996 27.6091V22.3907C59.9996 22.3017 60 15.572 60 15.572" fill="url(#paint1_linear_703_79)" fill-opacity="0.01"/>
</g>
<g style="mix-blend-mode:lighten" filter="url(#filter3_dddiii_703_79)">
<path d="M19.794 22.984C19.794 21.2224 21.2221 19.7943 22.9837 19.7943V19.7943C24.7453 19.7943 26.1734 21.2224 26.1734 22.984V37.2737C26.1734 39.0353 24.7453 40.4633 22.9837 40.4633V40.4633C21.2221 40.4633 19.794 39.0353 19.794 37.2737V22.984ZM19.2837 13.2874C19.2837 12.2667 19.6381 11.402 20.3469 10.6931C21.0841 9.95598 21.963 9.5874 22.9837 9.5874C24.0044 9.5874 24.8691 9.95598 25.578 10.6931C26.3151 11.402 26.6837 12.2667 26.6837 13.2874C26.6837 14.3081 26.3151 15.187 25.578 15.9242C24.8691 16.633 24.0044 16.9874 22.9837 16.9874C21.963 16.9874 21.0841 16.633 20.3469 15.9242C19.6381 15.187 19.2837 14.3081 19.2837 13.2874Z" fill="white"/>
<path d="M30.7565 22.8564C30.7565 21.1653 32.1274 19.7943 33.8186 19.7943H35.4772C36.2523 19.7943 36.8807 20.4227 36.8807 21.1978V22.5487C36.8807 22.5777 36.9042 22.6012 36.9332 22.6012V22.6012C36.9531 22.6012 36.9713 22.59 36.9804 22.5722C37.178 22.185 37.4567 21.7977 37.8163 21.4104C38.1849 21.0135 38.6243 20.6591 39.1347 20.3472C39.645 20.0353 40.2263 19.7801 40.8784 19.5817C41.5305 19.3832 42.2393 19.284 43.0048 19.284C44.6209 19.284 45.9251 19.5391 46.9175 20.0495C47.9098 20.5315 48.6753 21.2119 49.214 22.0909C49.7811 22.9698 50.1638 24.0047 50.3623 25.1955C50.5608 26.3863 50.66 27.6763 50.66 29.0656V37.2737C50.66 39.0353 49.2319 40.4633 47.4703 40.4633V40.4633C45.7087 40.4633 44.2807 39.0353 44.2807 37.2737V30.3415C44.2807 29.7461 44.2523 29.1365 44.1956 28.5127C44.1673 27.8606 44.0397 27.2652 43.8129 26.7265C43.6144 26.1878 43.2883 25.7484 42.8347 25.4081C42.4094 25.0679 41.7856 24.8978 40.9634 24.8978C40.1412 24.8978 39.4749 25.0537 38.9646 25.3656C38.4542 25.6491 38.0573 26.0461 37.7738 26.5564C37.5186 27.0384 37.3485 27.5913 37.2634 28.215C37.1784 28.8388 37.1358 29.4909 37.1358 30.1714V37.2737C37.1358 39.0353 35.7078 40.4633 33.9462 40.4633V40.4633C32.1846 40.4633 30.7565 39.0353 30.7565 37.2737V22.8564Z" fill="white"/>
</g>
</g>
<defs>
<filter id="filter0_d_703_79" x="0" y="0" width="70" height="70" filterUnits="userSpaceOnUse" color-interpolation-filters="sRGB">
<feFlood flood-opacity="0" result="BackgroundImageFix"/>
<feColorMatrix in="SourceAlpha" type="matrix" values="0 0 0 0 0 0 0 0 0 0 0 0 0 0 0 0 0 0 127 0" result="hardAlpha"/>
<feOffset dy="10"/>
<feGaussianBlur stdDeviation="5"/>
<feColorMatrix type="matrix" values="0 0 0 0 0 0 0 0 0 0 0 0 0 0 0 0 0 0 0.3 0"/>
<feBlend mode="normal" in2="BackgroundImageFix" result="effect1_dropShadow_703_79"/>
<feBlend mode="normal" in="SourceGraphic" in2="effect1_dropShadow_703_79" result="shape"/>
</filter>
<filter id="filter1_b_703_79" x="-0.873127" y="-10.8731" width="71.7463" height="71.7463" filterUnits="userSpaceOnUse" color-interpolation-filters="sRGB">
<feFlood flood-opacity="0" result="BackgroundImageFix"/>
<feGaussianBlur in="BackgroundImageFix" stdDeviation="5.43656"/>
<feComposite in2="SourceAlpha" operator="in" result="effect1_backgroundBlur_703_79"/>
<feBlend mode="normal" in="SourceGraphic" in2="effect1_backgroundBlur_703_79" result="shape"/>
</filter>
<filter id="filter2_ii_703_79" x="10" y="-20" width="50" height="84" filterUnits="userSpaceOnUse" color-interpolation-filters="sRGB">
<feFlood flood-opacity="0" result="BackgroundImageFix"/>
<feBlend mode="normal" in="SourceGraphic" in2="BackgroundImageFix" result="shape"/>
<feColorMatrix in="SourceAlpha" type="matrix" values="0 0 0 0 0 0 0 0 0 0 0 0 0 0 0 0 0 0 127 0" result="hardAlpha"/>
<feOffset dy="-20"/>
<feGaussianBlur stdDeviation="20"/>
<feComposite in2="hardAlpha" operator="arithmetic" k2="-1" k3="1"/>
<feColorMatrix type="matrix" values="0 0 0 0 0 0 0 0 0 0 0 0 0 0 0 0 0 0 0.3 0"/>
<feBlend mode="normal" in2="shape" result="effect1_innerShadow_703_79"/>
<feColorMatrix in="SourceAlpha" type="matrix" values="0 0 0 0 0 0 0 0 0 0 0 0 0 0 0 0 0 0 127 0" result="hardAlpha"/>
<feOffset dy="14"/>
<feGaussianBlur stdDeviation="32"/>
<feComposite in2="hardAlpha" operator="arithmetic" k2="-1" k3="1"/>
<feColorMatrix type="matrix" values="0 0 0 0 1 0 0 0 0 1 0 0 0 0 1 0 0 0 0.15 0"/>
<feBlend mode="normal" in2="effect1_innerShadow_703_79" result="effect2_innerShadow_703_79"/>
</filter>
<filter id="filter3_dddiii_703_79" x="-82.7163" y="-86.4126" width="247.376" height="246.876" filterUnits="userSpaceOnUse" color-interpolation-filters="sRGB">
<feFlood flood-opacity="0" result="BackgroundImageFix"/>
<feColorMatrix in="SourceAlpha" type="matrix" values="0 0 0 0 0 0 0 0 0 0 0 0 0 0 0 0 0 0 127 0" result="hardAlpha"/>
<feOffset dx="6" dy="32"/>
<feGaussianBlur stdDeviation="25"/>
<feColorMatrix type="matrix" values="0 0 0 0 0 0 0 0 0 0.0833333 0 0 0 0 0.166667 0 0 0 0.2 0"/>
<feBlend mode="normal" in2="BackgroundImageFix" result="effect1_dropShadow_703_79"/>
<feColorMatrix in="SourceAlpha" type="matrix" values="0 0 0 0 0 0 0 0 0 0 0 0 0 0 0 0 0 0 127 0" result="hardAlpha"/>
<feOffset dx="6" dy="12"/>
<feGaussianBlur stdDeviation="54"/>
<feColorMatrix type="matrix" values="0 0 0 0 0.14875 0 0 0 0 0.424375 0 0 0 0 0.7 0 0 0 0.3 0"/>
<feBlend mode="normal" in2="effect1_dropShadow_703_79" result="effect2_dropShadow_703_79"/>
<feColorMatrix in="SourceAlpha" type="matrix" values="0 0 0 0 0 0 0 0 0 0 0 0 0 0 0 0 0 0 127 0" result="hardAlpha"/>
<feOffset dy="6"/>
<feGaussianBlur stdDeviation="20"/>
<feColorMatrix type="matrix" values="0 0 0 0 0 0 0 0 0 0.157362 0 0 0 0 0.316667 0 0 0 0.2 0"/>
<feBlend mode="normal" in2="effect2_dropShadow_703_79" result="effect3_dropShadow_703_79"/>
<feBlend mode="normal" in="SourceGraphic" in2="effect3_dropShadow_703_79" result="shape"/>
<feColorMatrix in="SourceAlpha" type="matrix" values="0 0 0 0 0 0 0 0 0 0 0 0 0 0 0 0 0 0 127 0" result="hardAlpha"/>
<feOffset dx="13" dy="-18"/>
<feGaussianBlur stdDeviation="20"/>
<feComposite in2="hardAlpha" operator="arithmetic" k2="-1" k3="1"/>
<feColorMatrix type="matrix" values="0 0 0 0 0.368958 0 0 0 0 0.665729 0 0 0 0 0.9625 0 0 0 0.3 0"/>
<feBlend mode="normal" in2="shape" result="effect4_innerShadow_703_79"/>
<feColorMatrix in="SourceAlpha" type="matrix" values="0 0 0 0 0 0 0 0 0 0 0 0 0 0 0 0 0 0 127 0" result="hardAlpha"/>
<feOffset dx="-24" dy="-10"/>
<feGaussianBlur stdDeviation="15"/>
<feComposite in2="hardAlpha" operator="arithmetic" k2="-1" k3="1"/>
<feColorMatrix type="matrix" values="0 0 0 0 0.00177082 0 0 0 0 0.145669 0 0 0 0 0.425 0 0 0 0.16 0"/>
<feBlend mode="normal" in2="effect4_innerShadow_703_79" result="effect5_innerShadow_703_79"/>
<feColorMatrix in="SourceAlpha" type="matrix" values="0 0 0 0 0 0 0 0 0 0 0 0 0 0 0 0 0 0 127 0" result="hardAlpha"/>
<feOffset dx="8" dy="4"/>
<feGaussianBlur stdDeviation="20"/>
<feComposite in2="hardAlpha" operator="arithmetic" k2="-1" k3="1"/>
<feColorMatrix type="matrix" values="0 0 0 0 0.745833 0 0 0 0 0.878 0 0 0 0 1 0 0 0 0.35 0"/>
<feBlend mode="normal" in2="effect5_innerShadow_703_79" result="effect6_innerShadow_703_79"/>
</filter>
<linearGradient id="paint0_linear_703_79" x1="-7.05949" y1="0" x2="-7.05949" y2="84.119" gradientUnits="userSpaceOnUse">
<stop stop-color="white"/>
<stop offset="0.489516" stop-color="#EFEFEF"/>
<stop offset="1" stop-color="#C0C0C0"/>
</linearGradient>
<linearGradient id="paint1_linear_703_79" x1="-7.05949" y1="0" x2="-7.05949" y2="84.119" gradientUnits="userSpaceOnUse">
<stop stop-color="white"/>
<stop offset="0.489516" stop-color="#EFEFEF"/>
<stop offset="1" stop-color="#C0C0C0"/>
</linearGradient>
</defs>
</svg>
