<?xml version="1.0" encoding="UTF-8"?>
<svg xmlns="http://www.w3.org/2000/svg" xmlns:xlink="http://www.w3.org/1999/xlink" viewBox="0 0 16 16" width="16px" height="16px">
<g id="surface8934636">
<path style=" stroke:none;fill-rule:nonzero;fill:rgb(100%,100%,100%);fill-opacity:1;" d="M 7.265625 1.398438 C 4.199219 1.734375 1.734375 4.199219 1.398438 7.199219 C 1.066406 10.332031 2.867188 13.132812 5.601562 14.199219 C 5.800781 14.265625 6 14.132812 6 13.867188 L 6 12.800781 C 6 12.800781 5.734375 12.867188 5.398438 12.867188 C 4.464844 12.867188 4.066406 12.066406 4 11.601562 C 3.933594 11.332031 3.800781 11.132812 3.601562 10.933594 C 3.398438 10.867188 3.332031 10.867188 3.332031 10.800781 C 3.332031 10.667969 3.535156 10.667969 3.601562 10.667969 C 4 10.667969 4.332031 11.132812 4.464844 11.332031 C 4.800781 11.867188 5.199219 12 5.398438 12 C 5.667969 12 5.867188 11.933594 6 11.867188 C 6.066406 11.398438 6.265625 10.933594 6.667969 10.667969 C 5.132812 10.332031 4 9.464844 4 8 C 4 7.265625 4.332031 6.535156 4.800781 6 C 4.734375 5.867188 4.667969 5.535156 4.667969 5.066406 C 4.667969 4.800781 4.667969 4.398438 4.867188 4 C 4.867188 4 5.800781 4 6.734375 4.867188 C 7.066406 4.734375 7.535156 4.667969 8 4.667969 C 8.464844 4.667969 8.933594 4.734375 9.332031 4.867188 C 10.199219 4 11.199219 4 11.199219 4 C 11.332031 4.398438 11.332031 4.800781 11.332031 5.066406 C 11.332031 5.601562 11.265625 5.867188 11.199219 6 C 11.667969 6.535156 12 7.199219 12 8 C 12 9.464844 10.867188 10.332031 9.332031 10.667969 C 9.734375 11 10 11.601562 10 12.199219 L 10 13.933594 C 10 14.132812 10.199219 14.332031 10.464844 14.265625 C 12.933594 13.265625 14.667969 10.867188 14.667969 8.066406 C 14.667969 4.066406 11.265625 0.933594 7.265625 1.398438 Z M 7.265625 1.398438 "/>
</g>
</svg>
