<?xml version="1.0" encoding="UTF-8"?>
<svg xmlns="http://www.w3.org/2000/svg" xmlns:xlink="http://www.w3.org/1999/xlink" viewBox="0 0 100 100" width="100px" height="100px">
<g id="surface12946660">
<path style=" stroke:none;fill-rule:nonzero;fill:rgb(100%,100%,100%);fill-opacity:1;" d="M 32 6 C 17.664062 6 6 17.664062 6 32 L 6 68 C 6 82.335938 17.664062 94 32 94 L 68 94 C 82.335938 94 94 82.335938 94 68 L 94 32 C 94 17.664062 82.335938 6 68 6 Z M 32 10 L 68 10 C 80.171875 10 90 19.828125 90 32 L 90 68 C 90 80.171875 80.171875 90 68 90 L 32 90 C 19.828125 90 10 80.171875 10 68 L 10 32 C 10 19.828125 19.828125 10 32 10 Z M 74 22 C 71.789062 22 70 23.789062 70 26 C 70 28.210938 71.789062 30 74 30 C 76.210938 30 78 28.210938 78 26 C 78 23.789062 76.210938 22 74 22 Z M 50 28 C 37.875 28 28 37.875 28 50 C 28 62.125 37.875 72 50 72 C 62.125 72 72 62.125 72 50 C 72 37.875 62.125 28 50 28 Z M 50 32 C 59.964844 32 68 40.035156 68 50 C 68 59.964844 59.964844 68 50 68 C 40.035156 68 32 59.964844 32 50 C 32 40.035156 40.035156 32 50 32 Z M 50 32 "/>
</g>
</svg>
