<svg xmlns="http://www.w3.org/2000/svg" xmlns:xlink="http://www.w3.org/1999/xlink" viewBox="0,0,256,256" width="204px" height="204px" fill-rule="nonzero"><g fill-opacity="0" fill="#ffffff" fill-rule="nonzero" stroke="none" stroke-width="1" stroke-linecap="butt" stroke-linejoin="miter" stroke-miterlimit="10" stroke-dasharray="" stroke-dashoffset="0" font-family="none" font-weight="none" font-size="none" text-anchor="none" style="mix-blend-mode: normal"><path d="M0,256v-256h256v256z" id="bgRectangle"></path></g><g fill="none" fill-rule="nonzero" stroke="none" stroke-width="1" stroke-linecap="butt" stroke-linejoin="miter" stroke-miterlimit="10" stroke-dasharray="" stroke-dashoffset="0" font-family="none" font-weight="none" font-size="none" text-anchor="none" style="mix-blend-mode: normal"><g transform="scale(5.33333,5.33333)"><path d="M23.933,2l-20.933,7.285l3.308,27.123l17.647,9.592l17.738,-9.722l3.307,-27.122z" fill="#bdbdbd"></path><path d="M42.818,10.527l-18.818,-6.392v39.56l15.832,-8.678z" fill="#b71c1c"></path><path d="M23.941,4.115l-18.76,6.529l2.987,24.499l15.783,8.578l0.049,-0.026v-39.56z" fill="#dd2c00"></path><path d="M24,5.996v9.508l8.578,18.496h4.409z" fill="#bdbdbd"></path><path d="M11.013,34h4.409l8.578,-18.496v-9.508z" fill="#eeeeee"></path><path d="M24,24h6v4h-6z" fill="#bdbdbd"></path><path d="M18,24h6v4h-6z" fill="#eeeeee"></path></g></g></svg>